<svg width="26" height="26" viewBox="0 0 26 26" fill="none" xmlns="http://www.w3.org/2000/svg">
<path d="M24.8659 4.11724L21.4046 0.659668C20.9821 0.23722 20.4166 0 19.8186 0C19.2206 0 18.6551 0.233971 18.2326 0.659668L14.5048 4.38045C14.0823 4.8029 13.8451 5.37158 13.8451 5.9695C13.8451 6.57068 14.0791 7.13286 14.5048 7.55856L17.4168 10.4734C16.7534 12.0189 15.8003 13.4231 14.6088 14.6102C13.4161 15.8093 12.0218 16.7549 10.4748 17.4243L7.56278 14.5094C7.14028 14.087 6.57478 13.8498 5.97678 13.8498C5.68181 13.8487 5.3896 13.9065 5.11726 14.0197C4.84492 14.133 4.59793 14.2995 4.39077 14.5094L0.659753 18.2302C0.237251 18.6527 0 19.2213 0 19.8193C0 20.4204 0.234001 20.9826 0.659753 21.4083L4.11777 24.8659C4.83927 25.5873 5.83378 26 6.85428 26C7.06553 26 7.27028 25.9838 7.47828 25.948C11.7813 25.2396 16.0518 22.9486 19.5001 19.5041C22.9451 16.053 25.2331 11.783 25.9481 7.47732C26.1529 6.25547 25.7434 4.99788 24.8659 4.11724ZM23.6439 7.09061C23.0101 10.9219 20.9496 14.7434 17.8458 17.8468C14.7421 20.9501 10.9233 23.0104 7.09153 23.644C6.61053 23.7253 6.11653 23.5628 5.76552 23.2151L2.36926 19.8193L5.97028 16.2155L9.86379 20.115L9.89304 20.1442L10.595 19.8843C12.7236 19.1018 14.6565 17.8659 16.2598 16.2622C17.8631 14.6585 19.0985 12.7254 19.8803 10.5969L20.1403 9.89501L16.2143 5.97275L19.8153 2.36895L23.2116 5.76478C23.5626 6.11574 23.7251 6.60967 23.6439 7.09061Z" fill="#3A3A3A" fill-opacity="0.97"/>
</svg>
